<svg width="11" height="8" viewBox="0 0 11 8" fill="none" xmlns="http://www.w3.org/2000/svg">
<path d="M5.5 1.5V1.51875C6.6625 1.51875 7.6 2.45625 7.6 3.6C7.6 4.7625 6.6625 5.7 5.5 5.7C4.3375 5.7 3.4 4.7625 3.4 3.6C3.4 3.39375 3.4375 3.20625 3.49375 3.01875C3.625 3.1125 3.8125 3.15 4 3.15C4.5625 3.15 5.05 2.68125 5.05 2.1C5.03125 1.93125 4.99375 1.74375 4.9 1.59375C5.0875 1.5375 5.29375 1.51875 5.5 1.5ZM10.825 3.3375C10.8625 3.4125 10.8813 3.50625 10.8813 3.61875C10.8813 3.7125 10.8625 3.80625 10.825 3.88125C9.8125 5.86875 7.7875 7.2 5.5 7.2C3.19375 7.2 1.16875 5.86875 0.15625 3.88125C0.11875 3.80625 0.0999999 3.7125 0.0999999 3.6C0.0999999 3.50625 0.11875 3.4125 0.15625 3.3375C1.16875 1.35 3.19375 -3.33786e-06 5.5 -3.33786e-06C7.7875 -3.33786e-06 9.8125 1.35 10.825 3.3375ZM5.5 6.3C7.3375 6.3 9.04375 5.26875 9.94375 3.6C9.04375 1.93125 7.3375 0.899997 5.5 0.899997C3.64375 0.899997 1.9375 1.93125 1.0375 3.6C1.9375 5.26875 3.64375 6.3 5.5 6.3Z" fill="#DDDDDD"/>
</svg>
