<svg width="22" height="22" viewBox="0 0 22 22" fill="none" xmlns="http://www.w3.org/2000/svg">
<path d="M13.6324 10.4946L11.7897 14.18C11.5672 14.6286 10.9221 14.6138 10.7182 14.1577L8.60854 9.47502L7.49625 12.1334H4.00738L10.7738 19.0481C11.037 19.3188 11.4634 19.3188 11.7266 19.0481L18.4968 12.1334H14.4517L13.6324 10.4946ZM19.3236 4.19536L19.2346 4.10267C17.3252 2.15246 14.1996 2.15246 12.2865 4.10267L11.2521 5.16305L10.2176 4.10638C8.30822 2.15246 5.17899 2.15246 3.26956 4.10638L3.18058 4.19536C1.37497 6.04176 1.29711 8.9819 2.90992 10.9469H6.70653L8.03756 7.75097C8.23778 7.27269 8.91256 7.26157 9.1276 7.73614L11.2854 12.5301L13.1022 8.90034C13.3209 8.46284 13.9438 8.46284 14.1626 8.90034L15.1859 10.9469H19.5942C21.207 8.9819 21.1292 6.04176 19.3236 4.19536Z" fill="white"/>
 <animateTransform
      attributeName="transform"
      attributeType="XML"
      type="scale"
      values="1;1.3;1"
      dur="1.5s"
      repeatCount="indefinite"
    />
</svg>
